<svg xmlns="http://www.w3.org/2000/svg" version="1.1" viewBox="-5.0 -10.0 110.0 135.0">
 <path d="m56.707 24.227c5.8164 0 10.551-4.7305 10.551-10.551 0-5.8203-4.7344-10.551-10.551-10.551-5.8164 0-10.551 4.7305-10.551 10.551 0 5.8164 4.7305 10.551 10.551 10.551zm0-18.668c4.4727 0 8.1133 3.6406 8.1133 8.1133s-3.6406 8.1133-8.1133 8.1133c-4.4727 0-8.1133-3.6406-8.1133-8.1133-0.003906-4.4727 3.6367-8.1133 8.1133-8.1133zm33.992 88.844h-17.094c0.77344-0.82031 1.3242-1.8359 1.5938-2.9688 0.39844-1.6953 0.12109-3.4414-0.79297-4.9141l-17.438-28.223 5.7461-18.477 1.7773 1.8281c1.0938 1.125 2.3867 1.7734 3.9414 1.9727l11.25 1.4531c2.793 0.36328 5.3594-1.6172 5.7188-4.4102 0.36328-2.793-1.6172-5.3594-4.4102-5.7188l-10.035-1.2969-5.2812-5.4336c-0.011719-0.011719-0.023437-0.023438-0.035156-0.035156l-0.94922-0.97656c-1.3086-1.3477-2.9258-2.0273-4.8008-2.0273h-11.414c-1.2812 0-2.3906 0.30859-3.4844 0.97656l-11.645 7.0938c-1.3828 0.84375-2.3164 1.9961-2.8438 3.5312l-3.6836 10.664c-0.28125 0.81641-0.35156 1.6719-0.21094 2.5039-1.75-0.32031-3.5547 0.58594-4.2891 2.2891l-1.1758 2.7266-3.5195-1.5195c-1.332-0.57422-2.8867 0.039063-3.4648 1.375l-2.4453 5.6602c-0.003906 0.003907-0.003906 0.007813-0.003906 0.011719l-3.4102 7.8984c-0.57422 1.3359 0.039063 2.8867 1.375 3.4648l21.02 9.0781c0.33594 0.14453 0.6875 0.21484 1.0391 0.21484 0.32812 0 0.66016-0.0625 0.97656-0.1875 0.65625-0.26172 1.168-0.75781 1.4492-1.4023l5.8594-13.57c0.27734-0.64453 0.28906-1.3594 0.027344-2.0156s-0.75781-1.168-1.4023-1.4492l-3.5195-1.5195 1.1758-2.7266c0.41406-0.95313 0.42578-2.0156 0.042969-2.9883-0.34375-0.86328-0.96484-1.5586-1.7695-1.9922 0.85547-0.59766 1.5352-1.457 1.8984-2.5117l3.2734-9.4648 3.5117-2.1406-2.6758 14.008c-0.32422 1.6992-0.027343 3.3047 0.88281 4.7773l1.6992 2.7539-10.641 27.293c-0.62891 1.6133-0.58984 3.3789 0.11328 4.9766 0.22656 0.51172 0.51172 0.98828 0.84766 1.418h-18.305c-0.67188 0-1.2188 0.54297-1.2188 1.2188 0 0.67188 0.54297 1.2188 1.2188 1.2188h22.703c0.23047 0.023437 0.46094 0.035156 0.69141 0.035156 0.23438 0 0.46484-0.011719 0.69922-0.039062h51.426c0.67188 0 1.2188-0.54297 1.2188-1.2188 0-0.67188-0.54688-1.2148-1.2188-1.2148zm-25.352-63.039 4.1602 4.2773c0.082032 0.085937 0.17578 0.16016 0.28125 0.21875 0 0 0.003907 0 0.003907 0.003906h0.003906 0.003906 0.003907 0.003906s0.003906 0 0.003906 0.003907c0.13672 0.074218 0.28516 0.12109 0.43359 0.13672l10.445 1.3516c1.4609 0.1875 2.4961 1.5312 2.3086 2.9922-0.1875 1.4609-1.5312 2.4961-2.9922 2.3086l-11.25-1.4531c-1.0039-0.12891-1.8008-0.52734-2.5078-1.2578l-2.6992-2.7773zm-33.43 47.219c-0.027344 0.0625-0.074219 0.089844-0.10938 0.10547s-0.089844 0.027344-0.15234 0l-21.02-9.0742c-0.097657-0.042969-0.14844-0.16406-0.10547-0.26172l2.832-6.5625c2.8203 1.8516 5.9023 3.5312 9.1953 5.0156l-0.39844 0.91797c-0.26562 0.61719 0.019532 1.332 0.63672 1.6016 0.15625 0.066406 0.32031 0.10156 0.48047 0.10156 0.47266 0 0.91797-0.27344 1.1172-0.73438l0.39844-0.91797c3.3359 1.3789 6.6758 2.4688 9.957 3.2539zm5.8633-13.723c0.015625 0.035156 0.027344 0.089844 0 0.15234l-2.043 4.7344c-3.2773-0.75781-6.6211-1.8359-9.9727-3.2148l0.38672-0.89453c0.26562-0.61719-0.019532-1.332-0.63672-1.6016-0.61719-0.26562-1.332 0.019532-1.6016 0.63672l-0.38672 0.89453c-3.3008-1.4922-6.3789-3.1875-9.1758-5.0547l2.043-4.7344c0.03125-0.074219 0.10938-0.12109 0.1875-0.12109 0.027344 0 0.050781 0.003906 0.074219 0.015625l4.6328 2 16.383 7.0742c0.066406 0.03125 0.09375 0.078125 0.10938 0.11328zm-14.406-8.9375 1.1758-2.7266c0.32031-0.74219 1.1875-1.0859 1.9297-0.76562l2.9023 1.2539c0.15234 0.074218 0.30859 0.14453 0.47266 0.20312l3.4414 1.4883c0.35547 0.15234 0.63281 0.44141 0.78125 0.80859 0.14453 0.36719 0.14062 0.76562-0.011719 1.1211l-1.1758 2.7266zm19.598-2.2891 3.0898-16.176 2.543-1.5469c0.57422-0.35156 0.75781-1.0977 0.40625-1.6719-0.35156-0.57422-1.0977-0.75781-1.6719-0.40625l-2.9961 1.8242c-0.003906 0.003906-0.011719 0.007812-0.015625 0.007812l-6.2188 3.7891c-0.074219 0.042969-0.14453 0.097656-0.21094 0.16016-0.03125 0.027344-0.058594 0.058594-0.085938 0.09375v0.003907s0 0.003906-0.003906 0.003906l-0.003906 0.003906c-0.042969 0.054688-0.085938 0.11328-0.12109 0.17578v0.003907 0.003906c-0.039063 0.066406-0.066406 0.13672-0.09375 0.20703l-3.4141 9.875c-0.47656 1.3828-1.9883 2.1211-3.3711 1.6602l-0.39453-0.17188c-0.5-0.26172-0.90234-0.67578-1.1562-1.1953-0.3125-0.64453-0.35938-1.3672-0.125-2.0391l3.6836-10.664c0.33984-0.98828 0.91797-1.7031 1.8086-2.2461l11.645-7.0938c0.70703-0.42969 1.3906-0.62109 2.2188-0.62109h11.418c1.2109 0 2.2109 0.42188 3.0547 1.2891l0.46484 0.47656-8.9336 28.719c-0.003906 0.011719-0.007812 0.023438-0.011719 0.035156v0.003907c-0.046874 0.16406-0.054687 0.32812-0.035156 0.48828 0.019532 0.15234 0.070313 0.30469 0.15234 0.44531 0.007812 0.011719 0.015625 0.027344 0.023438 0.039063l17.727 28.684c0.57031 0.91797 0.74219 2.0117 0.49219 3.0742s-0.89453 1.9609-1.8164 2.5273c-0.91797 0.57031-2.0117 0.74219-3.0742 0.49219s-1.9609-0.89453-2.5273-1.8164l-12.898-20.852c-0.003906-0.007812-0.011719-0.019531-0.015625-0.027344l-6.9453-11.242c-0.003906-0.007813-0.007813-0.015625-0.011719-0.023438l-2.0117-3.2578c-0.58984-0.94531-0.77344-1.9375-0.5625-3.0352zm21.168 40.77h-20.449c0.39453-0.5 0.71875-1.0586 0.95703-1.668l7.0781-18.168 11.613 18.793c0.23438 0.375 0.50391 0.72656 0.80078 1.043zm-27.031-0.24219c-1.0078-0.39453-1.8047-1.1602-2.2422-2.1602s-0.46484-2.1055-0.070313-3.1133l9.9727-25.59 5.3594 8.6719-7.7461 19.875c-0.39453 1.0078-1.1602 1.8047-2.1602 2.2422-0.35938 0.16016-0.73438 0.26172-1.1133 0.3125h-1.043c-0.32422-0.039063-0.64844-0.11328-0.95703-0.23828z"/>
<text x="0.0" y="117.5" font-size="5.0" font-weight="bold" font-family="Arbeit Regular, Helvetica, Arial-Unicode, Arial, Sans-serif" fill="#000000">Created by jumiati</text><text x="0.0" y="122.5" font-size="5.0" font-weight="bold" font-family="Arbeit Regular, Helvetica, Arial-Unicode, Arial, Sans-serif" fill="#000000">from Noun Project</text></svg>