<svg xmlns="http://www.w3.org/2000/svg" version="1.1" viewBox="-5.0 -10.0 110.0 135.0">
 <path d="m41.246 19.828c0 8.5469 3.3945 16.742 9.4375 22.785 6.043 6.043 14.238 9.4375 22.785 9.4375-8.5469 0-16.742 3.3945-22.785 9.4375-6.043 6.043-9.4375 14.238-9.4375 22.785 0-8.5469-3.3945-16.742-9.4375-22.785-6.043-6.043-14.238-9.4375-22.785-9.4375 8.5469 0 16.742-3.3945 22.785-9.4375 6.043-6.043 9.4375-14.238 9.4375-22.785zm14.18 3.0039c4.2656 0 8.3555 1.6953 11.375 4.7148 3.0156 3.0156 4.7109 7.1055 4.7109 11.371 0-4.2656 1.6953-8.3555 4.7109-11.371 3.0156-3.0195 7.1094-4.7148 11.375-4.7148-4.2656 0-8.3594-1.6914-11.375-4.7109-3.0156-3.0156-4.7109-7.1055-4.7109-11.375 0 4.2695-1.6953 8.3594-4.7109 11.375-3.0195 3.0195-7.1094 4.7109-11.375 4.7109zm7.1133 56.199h-0.003906c3.7734 0 7.3906 1.5 10.055 4.168 2.668 2.6641 4.168 6.2812 4.168 10.055 0-3.7734 1.4961-7.3906 4.1641-10.055 2.6641-2.668 6.2812-4.168 10.055-4.168-3.7734 0-7.3906-1.4961-10.055-4.1641-2.668-2.6641-4.1641-6.2812-4.1641-10.055 0 7.8555-6.3672 14.219-14.223 14.219z"/>
<text x="0.0" y="117.5" font-size="5.0" font-weight="bold" font-family="Arbeit Regular, Helvetica, Arial-Unicode, Arial, Sans-serif" fill="#000000">Created by sugeng riyanto</text><text x="0.0" y="122.5" font-size="5.0" font-weight="bold" font-family="Arbeit Regular, Helvetica, Arial-Unicode, Arial, Sans-serif" fill="#000000">from Noun Project</text></svg>