<svg xmlns="http://www.w3.org/2000/svg" data-name="Layer 1" viewBox="0 0 64 80" x="0px" y="0px"><path d="M61.969,47.383A.967.967,0,0,0,62,47.145l-.318-3.791a7.846,7.846,0,0,1-.059-1.246,4.461,4.461,0,0,0-1.167-3.658c-1.067-.952-3.691-.717-5.5-.411a.982.982,0,0,0-.36-.615,1.01,1.01,0,0,0-.887-.153l-4.988,1.52c4.793-6.262,9.958-16.548,5.907-21.768C51.425,12.9,46,11.9,39.726,14.264c-1.057.238-14.238,3.258-18.595,7.2a22.97,22.97,0,0,0-3.848,4.361c-2.329,3.538-2.488,4.959-2.3,5.6l-4.83.134a1.958,1.958,0,0,0-1.2-.3l-1.692.153a3.683,3.683,0,0,0-3.1,2.359L2.234,38.9a3.667,3.667,0,0,0,.4,3.343l.979,1.445a1.943,1.943,0,0,0,1.609.854,1.857,1.857,0,0,0,.2-.01c.038,0,.071-.02.108-.026l.683.5a8.759,8.759,0,0,0,2.179,1.22H3a1,1,0,0,0,0,2H61A1.049,1.049,0,0,0,61.611,48,.958.958,0,0,0,61.969,47.383Zm-2.847-7.441c.477.426.5,1.1.5,2.162a9.119,9.119,0,0,0,.076,1.5l.218,2.627H58.791l-1.947-3.066A1,1,0,0,0,56,42.7H55V40.064C56.881,39.733,58.731,39.668,59.122,39.942ZM53.047,18.25c3.464,4.463-2.317,15.7-7.986,21.8a1,1,0,0,0,1.023,1.639L53,39.577V43.93c-3.638.963-9.1,2.3-10.286,2.3a3.906,3.906,0,0,1-.448-.025,2.971,2.971,0,0,1-2.377-1.333c-.936-1.507-.566-3.974.034-5.63.564-1.552,1.854-5.954,3.1-10.211,1.111-3.786,2.159-7.362,2.625-8.709a1.038,1.038,0,0,0-.055-.772,12.252,12.252,0,0,0-3.3-4.015C45.579,14.654,50.079,14.425,53.047,18.25Zm-33,21.919,1.431-2.584c.645.11,1.461.235,2.5.39.66.1,1.357.2,1.977.3l-4.475,5.034-.989.2a.991.991,0,0,0,.085-.423A12.281,12.281,0,0,0,20.042,40.169Zm1.863-14.518a3.078,3.078,0,0,1,3.674.364,1.09,1.09,0,0,0,.114.089l10.379,6.987a2,2,0,0,1,.212,2.8l-8.54,10.09-4.13-2.064,7.134-8.025a1,1,0,0,0-.491-1.63l-6.821-1.814a4.718,4.718,0,0,1-2.991-3.636A3.077,3.077,0,0,1,21.905,25.651ZM18,46.047l3.86-.772,1.9.953H18Zm19.811-8.865a3.976,3.976,0,0,0,.931-2.932,4.14,4.14,0,0,0-.091-.487l1.1-.7c-.733,2.47-1.368,4.555-1.71,5.5-.383,1.055-1.505,4.708.146,7.366.07.112.165.2.243.3H30.156Zm2.05-20.9a10.456,10.456,0,0,1,3.754,3.825c-.528,1.6-1.49,4.882-2.509,8.357l-.493,1.682-2.861,1.816a4.023,4.023,0,0,0-.435-.441.941.941,0,0,0-.081-.06L26.867,24.483a5.042,5.042,0,0,0-4.957-1.006c.187-.178.363-.354.562-.534C26.156,19.614,37.685,16.8,39.861,16.285ZM18.439,27.741a5.153,5.153,0,0,0,.033,1.4,6.754,6.754,0,0,0,4.356,5.209l5.346,1.425-.664.748c-.808-.163-2-.341-3.242-.527s-3.045-.454-3.665-.616L16.935,30.8A14.29,14.29,0,0,1,18.439,27.741ZM10.112,38.194l-1.107.366,1.922-4.622a1.922,1.922,0,0,0,.111-.407l3.493-.1-1.79,1.9-.658.218A2.886,2.886,0,0,0,10.112,38.194ZM4.106,39.6l1.932-5.135a1.669,1.669,0,0,1,1.4-1.071l1.613-.225.015.021L5.208,42.481,4.286,41.12A1.664,1.664,0,0,1,4.106,39.6Zm2.981,3.569L7.99,41l3.519-1.164a1.02,1.02,0,0,0,.636-1.263.894.894,0,0,1,.566-1.127l.9-.3a.985.985,0,0,0,.414-.263l2.826-3,2.37,2.963a.985.985,0,0,0,.259.207l-.777,1.4-.817-.784A1,1,0,0,0,16.5,39.121l1.584,1.519a9,9,0,0,1,.427,1.871,15.3,15.3,0,0,1-3.069,1.048c-.751.1-.962.786-1.162,1.457a6.217,6.217,0,0,1-1.125-.453,1.876,1.876,0,0,0-1.7-.256,2.377,2.377,0,0,1-.4.138c-1.161.317-2.223.012-3.66-1.047ZM54.26,45.664A1,1,0,0,0,55,44.7h.45l.971,1.53h-4.3C53.19,45.95,54,45.734,54.26,45.664Z"/><text x="0" y="79" fill="#000000" font-size="5px" font-weight="bold" font-family="'Helvetica Neue', Helvetica, Arial-Unicode, Arial, Sans-serif">Created by dDara</text><text x="0" y="84" fill="#000000" font-size="5px" font-weight="bold" font-family="'Helvetica Neue', Helvetica, Arial-Unicode, Arial, Sans-serif">from the Noun Project</text></svg>