<svg xmlns="http://www.w3.org/2000/svg" xmlns:xlink="http://www.w3.org/1999/xlink" version="1.1" x="0px" y="0px" viewBox="0 0 66 82.5" style="enable-background:new 0 0 66 66;" xml:space="preserve"><g><path d="M17.5847397,13.7012386v3.8276672c0.4997253-0.0568733,1.0056229-0.0928707,1.5203304-0.0928707   c7.3763752,0,13.3772411,6.0008659,13.3772411,13.3772411c0,7.3758221-6.0008659,13.3772411-13.3772411,13.3772411   c-0.5147076,0-1.0206051-0.0359955-1.5203304-0.0928688v13.3308411L31.5262775,46.921566l13.9415417,10.5069237V21.103693   v-3.6920719v-3.7103825c0-1.991272,0.7942886-3.797843,2.0778313-5.1297274H22.7144661   C19.8857651,8.5715113,17.5847397,10.8725367,17.5847397,13.7012386z"/><path d="M30.2095833,30.8132763c0-6.1229362-4.9815788-11.1045132-11.1045132-11.1045132   C12.9815788,19.7087631,8,24.69034,8,30.8132763s4.9815788,11.1045132,11.1050701,11.1045132   C25.2280045,41.9177895,30.2095833,36.9362144,30.2095833,30.8132763z M11.3208675,32.763073l1.6068888-1.6068897   l3.3891153,3.3896694l8.9649563-8.9655075l1.6068878,1.6068878L16.3168716,37.7596321L11.3208675,32.763073z"/><path d="M52.8702736,8.5715113c-2.8287048,0-5.1297302,2.3010254-5.1297302,5.1297274v3.7103825v1.4193439H58v-5.1297264   C58,10.8725367,55.6989746,8.5715113,52.8702736,8.5715113z"/></g><text x="0" y="81" fill="#000000" font-size="5px" font-weight="bold" font-family="'Helvetica Neue', Helvetica, Arial-Unicode, Arial, Sans-serif">Created by Vectorstall</text><text x="0" y="86" fill="#000000" font-size="5px" font-weight="bold" font-family="'Helvetica Neue', Helvetica, Arial-Unicode, Arial, Sans-serif">from the Noun Project</text></svg>