<svg xmlns="http://www.w3.org/2000/svg" xmlns:xlink="http://www.w3.org/1999/xlink" version="1.1" x="0px" y="0px"
     viewBox="0 0 72 90" style="enable-background:new 0 0 72 72;" xml:space="preserve"><g><g><path d="M60.03,58.62C65.82,52.47,69,44.48,69,36C69,17.8,54.2,3,36,3H4C3.6,3,3.23,3.24,3.08,3.62s-0.07,0.8,0.22,1.09l8.68,8.68    C6.18,19.53,3,27.52,3,36c0,18.2,14.8,33,33,33h32c0.4,0,0.77-0.24,0.92-0.62s0.07-0.8-0.22-1.09L60.03,58.62z M36,67    C18.91,67,5,53.09,5,36c0-8.28,3.22-16.07,9.08-21.92c0.19-0.19,0.29-0.44,0.29-0.71s-0.11-0.52-0.29-0.71L6.41,5H36    c17.09,0,31,13.91,31,31c0,8.28-3.22,16.07-9.08,21.92c-0.19,0.19-0.29,0.44-0.29,0.71s0.11,0.52,0.29,0.71L65.59,67H36z"/><path
        d="M23,19h27c1.65,0,3-1.35,3-3s-1.35-3-3-3H23c-1.65,0-3,1.35-3,3S21.35,19,23,19z M23,15h27c0.55,0,1,0.45,1,1s-0.45,1-1,1    H23c-0.55,0-1-0.45-1-1S22.45,15,23,15z"/><path
        d="M35,32c1.65,0,3-1.35,3-3s-1.35-3-3-3H16c-1.65,0-3,1.35-3,3s1.35,3,3,3H35z M15,29c0-0.55,0.45-1,1-1h19    c0.55,0,1,0.45,1,1s-0.45,1-1,1H16C15.45,30,15,29.55,15,29z"/><path
        d="M59,42c0-1.65-1.35-3-3-3H37c-1.65,0-3,1.35-3,3s1.35,3,3,3h19C57.65,45,59,43.65,59,42z M56,43H37c-0.55,0-1-0.45-1-1    s0.45-1,1-1h19c0.55,0,1,0.45,1,1S56.55,43,56,43z"/><path
        d="M41,29c0,1.65,1.35,3,3,3s3-1.35,3-3s-1.35-3-3-3S41,27.35,41,29z M45,29c0,0.55-0.45,1-1,1s-1-0.45-1-1s0.45-1,1-1    S45,28.45,45,29z"/><path
        d="M49,29c0,1.65,1.35,3,3,3s3-1.35,3-3s-1.35-3-3-3S49,27.35,49,29z M53,29c0,0.55-0.45,1-1,1s-1-0.45-1-1s0.45-1,1-1    S53,28.45,53,29z"/><path
        d="M20.71,39.29c-0.39-0.39-1.02-0.39-1.41,0L18,40.59l-1.29-1.29c-0.39-0.39-1.02-0.39-1.41,0s-0.39,1.02,0,1.41L16.59,42    l-1.29,1.29c-0.39,0.39-0.39,1.02,0,1.41C15.49,44.9,15.74,45,16,45s0.51-0.1,0.71-0.29L18,43.41l1.29,1.29    C19.49,44.9,19.74,45,20,45s0.51-0.1,0.71-0.29c0.39-0.39,0.39-1.02,0-1.41L19.41,42l1.29-1.29C21.1,40.32,21.1,39.68,20.71,39.29    z"/><path
        d="M29.71,39.29c-0.39-0.39-1.02-0.39-1.41,0L27,40.59l-1.29-1.29c-0.39-0.39-1.02-0.39-1.41,0s-0.39,1.02,0,1.41L25.59,42    l-1.29,1.29c-0.39,0.39-0.39,1.02,0,1.41C24.49,44.9,24.74,45,25,45s0.51-0.1,0.71-0.29L27,43.41l1.29,1.29    C28.49,44.9,28.74,45,29,45s0.51-0.1,0.71-0.29c0.39-0.39,0.39-1.02,0-1.41L28.41,42l1.29-1.29C30.1,40.32,30.1,39.68,29.71,39.29    z"/><path
        d="M48,52H37c-1.65,0-3,1.35-3,3s1.35,3,3,3h11c1.65,0,3-1.35,3-3S49.65,52,48,52z M48,56H37c-0.55,0-1-0.45-1-1s0.45-1,1-1    h11c0.55,0,1,0.45,1,1S48.55,56,48,56z"/><path
        d="M29.71,52.29c-0.39-0.39-1.02-0.39-1.41,0L27,53.59l-1.29-1.29c-0.39-0.39-1.02-0.39-1.41,0s-0.39,1.02,0,1.41L25.59,55    l-1.29,1.29c-0.39,0.39-0.39,1.02,0,1.41C24.49,57.9,24.74,58,25,58s0.51-0.1,0.71-0.29L27,56.41l1.29,1.29    C28.49,57.9,28.74,58,29,58s0.51-0.1,0.71-0.29c0.39-0.39,0.39-1.02,0-1.41L28.41,55l1.29-1.29C30.1,53.32,30.1,52.68,29.71,52.29    z"/></g></g>
</svg>