<svg xmlns="http://www.w3.org/2000/svg"
     viewBox="0 0 512 640" x="0px" y="0px" fill="#ffffff">
    <path d="M72.9,404.1l132.2-36.2c2.8-0.8,5.4-2.3,7.5-4.4l213.1-213.1c20.1-20.1,20.1-52.7,0-72.8l-47.2-47.2   c-20.1-20.1-52.7-20.1-72.8,0L92.6,243.5c-2.1,2.1-3.6,4.7-4.4,7.5L52,383.3c-1.6,5.9,0.1,12.2,4.4,16.5c3.2,3.2,7.6,5,12,5   C69.9,404.7,71.4,404.5,72.9,404.1z M128.9,255.4l146.6-146.6l71.9,71.9L200.8,327.3L128.9,255.4z M329.8,54.4   c6.8-6.8,17.9-6.8,24.7,0l47.2,47.2c6.8,6.8,6.8,17.9,0,24.7l-30.3,30.3l-71.9-71.9L329.8,54.4z M113.4,288l54.8,54.8l-75.5,20.7   L113.4,288z"/>
    <path d="M452.1,463H59.9c-9.4,0-17,7.6-17,17s7.6,17,17,17h392.2c9.4,0,17-7.6,17-17S461.5,463,452.1,463z"/>
</svg>